<svg width="49" height="49" viewBox="0 0 49 49"  xmlns="http://www.w3.org/2000/svg">
<path d="M33.9324 6.10458C33.6954 5.86692 33.4138 5.67835 33.1037 5.5497C32.7936 5.42104 32.4613 5.35481 32.1256 5.35481C31.7899 5.35481 31.4575 5.42104 31.1474 5.5497C30.8374 5.67835 30.5558 5.86692 30.3187 6.10458L13.3524 23.0708C13.1632 23.2597 13.013 23.4841 12.9106 23.7311C12.8081 23.978 12.7554 24.2428 12.7554 24.5102C12.7554 24.7776 12.8081 25.0424 12.9106 25.2894C13.013 25.5363 13.1632 25.7607 13.3524 25.9496L30.3187 42.9158C31.3191 43.9162 32.932 43.9162 33.9324 42.9158C34.9329 41.9154 34.9329 40.3025 33.9324 39.3021L19.1508 24.5L33.9529 9.69792C34.9329 8.71792 34.9329 7.08458 33.9324 6.10458Z" fill="white"/>
</svg>
